<svg xmlns="http://www.w3.org/2000/svg" xmlns:xlink="http://www.w3.org/1999/xlink" width="500" zoomAndPan="magnify" viewBox="0 0 375 374.999991" height="500" preserveAspectRatio="xMidYMid meet" version="1.0"><defs><g/><clipPath id="5a8abf3ef6"><path d="M 4.59375 95.289062 L 100.503906 95.289062 L 100.503906 224.542969 L 4.59375 224.542969 Z M 4.59375 95.289062 " clip-rule="nonzero"/></clipPath><clipPath id="9d7866bf67"><path d="M 10.261719 138.335938 C 6.839844 144.953125 4.59375 152.476562 4.59375 159.859375 C 4.59375 167.242188 6.519531 174.347656 9.9375 180.894531 C 10.046875 181.035156 10.046875 181.171875 10.152344 181.3125 C 23.835938 205.898438 59.96875 224.007812 98.960938 224.359375 L 100.503906 224.359375 L 100.503906 95.289062 L 98.960938 95.289062 C 59.753906 95.640625 23.621094 113.46875 10.261719 138.335938 Z M 10.261719 138.335938 " clip-rule="nonzero"/></clipPath><clipPath id="bce1a42d3f"><path d="M 0.59375 0.289062 L 96.503906 0.289062 L 96.503906 129.359375 L 0.59375 129.359375 Z M 0.59375 0.289062 " clip-rule="nonzero"/></clipPath><clipPath id="d6bf12b6ee"><path d="M 6.261719 43.335938 C 2.839844 49.953125 0.59375 57.476562 0.59375 64.859375 C 0.59375 72.242188 2.519531 79.347656 5.9375 85.894531 C 6.046875 86.035156 6.046875 86.171875 6.152344 86.3125 C 19.835938 110.898438 55.96875 129.007812 94.960938 129.359375 L 96.503906 129.359375 L 96.503906 0.289062 L 94.960938 0.289062 C 55.753906 0.640625 19.621094 18.46875 6.261719 43.335938 Z M 6.261719 43.335938 " clip-rule="nonzero"/></clipPath><clipPath id="ca4b3efb36"><rect x="0" width="97" y="0" height="130"/></clipPath><clipPath id="3312c57d92"><path d="M 0.5 87.585938 L 104.613281 87.585938 L 104.613281 161.34375 L 0.5 161.34375 Z M 0.5 87.585938 " clip-rule="nonzero"/></clipPath><clipPath id="70f0421a86"><path d="M 0.5 0.585938 L 104.613281 0.585938 L 104.613281 74.34375 L 0.5 74.34375 Z M 0.5 0.585938 " clip-rule="nonzero"/></clipPath><clipPath id="e6be66f95a"><rect x="0" width="105" y="0" height="75"/></clipPath><clipPath id="a1b6c1ed59"><path d="M 4.59375 0.5 L 100.503906 0.5 L 100.503906 129.75 L 4.59375 129.75 Z M 4.59375 0.5 " clip-rule="nonzero"/></clipPath><clipPath id="3a76ba60ff"><path d="M 10.261719 43.546875 C 6.839844 50.164062 4.59375 57.683594 4.59375 65.070312 C 4.59375 72.453125 6.519531 79.558594 9.9375 86.105469 C 10.046875 86.242188 10.046875 86.382812 10.152344 86.523438 C 23.835938 111.109375 59.96875 129.21875 98.960938 129.566406 L 100.503906 129.566406 L 100.503906 0.5 L 98.960938 0.5 C 59.753906 0.847656 23.621094 18.679688 10.261719 43.546875 Z M 10.261719 43.546875 " clip-rule="nonzero"/></clipPath><clipPath id="f3e98f5420"><path d="M 0.59375 0.5 L 96.503906 0.5 L 96.503906 129.75 L 0.59375 129.75 Z M 0.59375 0.5 " clip-rule="nonzero"/></clipPath><clipPath id="76e4a23061"><path d="M 6.261719 43.546875 C 2.839844 50.164062 0.59375 57.683594 0.59375 65.070312 C 0.59375 72.453125 2.519531 79.558594 5.9375 86.105469 C 6.046875 86.242188 6.046875 86.382812 6.152344 86.523438 C 19.835938 111.109375 55.96875 129.21875 94.960938 129.566406 L 96.503906 129.566406 L 96.503906 0.5 L 94.960938 0.5 C 55.753906 0.847656 19.621094 18.679688 6.261719 43.546875 Z M 6.261719 43.546875 " clip-rule="nonzero"/></clipPath><clipPath id="6e79cc01bc"><rect x="0" width="97" y="0" height="130"/></clipPath><clipPath id="ad4afcf640"><path d="M 135.703125 0.308594 L 231.613281 0.308594 L 231.613281 129.558594 L 135.703125 129.558594 Z M 135.703125 0.308594 " clip-rule="nonzero"/></clipPath><clipPath id="44de47a956"><path d="M 225.945312 86.511719 C 229.367188 79.898438 231.613281 72.375 231.613281 64.992188 C 231.613281 57.609375 229.6875 50.503906 226.265625 43.957031 C 226.160156 43.816406 226.160156 43.675781 226.054688 43.539062 C 212.371094 18.949219 176.238281 0.839844 137.246094 0.492188 L 135.703125 0.492188 L 135.703125 129.558594 L 137.242188 129.558594 C 176.449219 129.210938 212.582031 111.378906 225.945312 86.511719 Z M 225.945312 86.511719 " clip-rule="nonzero"/></clipPath><clipPath id="4ad8941d70"><path d="M 0.703125 0.441406 L 96.613281 0.441406 L 96.613281 129.558594 L 0.703125 129.558594 Z M 0.703125 0.441406 " clip-rule="nonzero"/></clipPath><clipPath id="f8ed7faaf1"><path d="M 90.945312 86.511719 C 94.367188 79.898438 96.613281 72.375 96.613281 64.992188 C 96.613281 57.609375 94.6875 50.503906 91.265625 43.957031 C 91.160156 43.816406 91.160156 43.675781 91.054688 43.539062 C 77.371094 18.949219 41.238281 0.839844 2.246094 0.492188 L 0.703125 0.492188 L 0.703125 129.558594 L 2.242188 129.558594 C 41.449219 129.210938 77.582031 111.378906 90.945312 86.511719 Z M 90.945312 86.511719 " clip-rule="nonzero"/></clipPath><clipPath id="d2f3d4a57f"><rect x="0" width="97" y="0" height="130"/></clipPath><clipPath id="db2b016c6f"><path d="M 134.128906 63.839844 L 238.242188 63.839844 L 238.242188 125.449219 L 134.128906 125.449219 Z M 134.128906 63.839844 " clip-rule="nonzero"/></clipPath><clipPath id="5ce5284839"><path d="M 0.128906 0.839844 L 104.242188 0.839844 L 104.242188 62.449219 L 0.128906 62.449219 Z M 0.128906 0.839844 " clip-rule="nonzero"/></clipPath><clipPath id="8bca5bad35"><rect x="0" width="105" y="0" height="63"/></clipPath><clipPath id="632689e5c5"><path d="M 134.128906 96.617188 L 230.035156 96.617188 L 230.035156 225.867188 L 134.128906 225.867188 Z M 134.128906 96.617188 " clip-rule="nonzero"/></clipPath><clipPath id="e020f5ae9b"><path d="M 224.371094 182.820312 C 227.792969 176.203125 230.035156 168.683594 230.035156 161.300781 C 230.035156 153.914062 228.113281 146.8125 224.691406 140.265625 C 224.582031 140.125 224.582031 139.984375 224.476562 139.847656 C 210.792969 115.257812 174.660156 97.148438 135.667969 96.800781 L 134.128906 96.800781 L 134.128906 225.867188 L 135.667969 225.867188 C 174.875 225.519531 211.007812 207.6875 224.371094 182.820312 Z M 224.371094 182.820312 " clip-rule="nonzero"/></clipPath><clipPath id="a3b6bafc57"><path d="M 0.128906 0.679688 L 96.035156 0.679688 L 96.035156 129.867188 L 0.128906 129.867188 Z M 0.128906 0.679688 " clip-rule="nonzero"/></clipPath><clipPath id="aceb203afc"><path d="M 90.371094 86.820312 C 93.792969 80.203125 96.035156 72.683594 96.035156 65.300781 C 96.035156 57.914062 94.113281 50.8125 90.691406 44.265625 C 90.582031 44.125 90.582031 43.984375 90.476562 43.847656 C 76.792969 19.257812 40.660156 1.148438 1.667969 0.800781 L 0.128906 0.800781 L 0.128906 129.867188 L 1.667969 129.867188 C 40.875 129.519531 77.007812 111.6875 90.371094 86.820312 Z M 90.371094 86.820312 " clip-rule="nonzero"/></clipPath><clipPath id="e6df311847"><rect x="0" width="97" y="0" height="130"/></clipPath><clipPath id="bda18dad3f"><rect x="0" width="239" y="0" height="227"/></clipPath><clipPath id="9d0e5a2cab"><rect x="0" width="306" y="0" height="95"/></clipPath></defs><rect x="-37.5" width="450" fill="#ffffff" y="-37.499999" height="449.999989" fill-opacity="1"/><rect x="-37.5" width="450" fill="#f0f9fa" y="-37.499999" height="449.999989" fill-opacity="1"/><g transform="matrix(1, 0, 0, 1, 37, 37)"><g clip-path="url(#bda18dad3f)"><g clip-path="url(#5a8abf3ef6)"><g clip-path="url(#9d7866bf67)"><g transform="matrix(1, 0, 0, 1, 4, 95)"><g clip-path="url(#ca4b3efb36)"><g clip-path="url(#bce1a42d3f)"><g clip-path="url(#d6bf12b6ee)"><path fill="#2db8c8" d="M 96.503906 0.289062 L 96.503906 129.542969 L 0.59375 129.542969 L 0.59375 0.289062 Z M 96.503906 0.289062 " fill-opacity="1" fill-rule="nonzero"/></g></g></g></g></g></g><g clip-path="url(#3312c57d92)"><g transform="matrix(1, 0, 0, 1, 0, 87)"><g clip-path="url(#e6be66f95a)"><g clip-path="url(#70f0421a86)"><path fill="#f0f9fa" d="M 0.5 0.585938 L 104.507812 0.585938 L 104.507812 74.34375 L 0.5 74.34375 Z M 0.5 0.585938 " fill-opacity="1" fill-rule="nonzero"/></g></g></g></g><g clip-path="url(#a1b6c1ed59)"><g clip-path="url(#3a76ba60ff)"><g transform="matrix(1, 0, 0, 1, 4, -0.000000000000007105)"><g clip-path="url(#6e79cc01bc)"><g clip-path="url(#f3e98f5420)"><g clip-path="url(#76e4a23061)"><path fill="#256c69" d="M 96.503906 0.5 L 96.503906 129.75 L 0.59375 129.75 L 0.59375 0.5 Z M 96.503906 0.5 " fill-opacity="1" fill-rule="nonzero"/></g></g></g></g></g></g><g clip-path="url(#ad4afcf640)"><g clip-path="url(#44de47a956)"><g transform="matrix(1, 0, 0, 1, 135, -0.000000000000007105)"><g clip-path="url(#d2f3d4a57f)"><g clip-path="url(#4ad8941d70)"><g clip-path="url(#f8ed7faaf1)"><path fill="#de784a" d="M 0.703125 129.558594 L 0.703125 0.308594 L 96.613281 0.308594 L 96.613281 129.558594 Z M 0.703125 129.558594 " fill-opacity="1" fill-rule="nonzero"/></g></g></g></g></g></g><g clip-path="url(#db2b016c6f)"><g transform="matrix(1, 0, 0, 1, 134, 63)"><g clip-path="url(#8bca5bad35)"><g clip-path="url(#5ce5284839)"><path fill="#f0f9fa" d="M 0.128906 0.839844 L 104.332031 0.839844 L 104.332031 62.449219 L 0.128906 62.449219 Z M 0.128906 0.839844 " fill-opacity="1" fill-rule="nonzero"/></g></g></g></g><g clip-path="url(#632689e5c5)"><g clip-path="url(#e020f5ae9b)"><g transform="matrix(1, 0, 0, 1, 134, 96)"><g clip-path="url(#e6df311847)"><g clip-path="url(#a3b6bafc57)"><g clip-path="url(#aceb203afc)"><path fill="#256c69" d="M 0.128906 129.867188 L 0.128906 0.617188 L 96.035156 0.617188 L 96.035156 129.867188 Z M 0.128906 129.867188 " fill-opacity="1" fill-rule="nonzero"/></g></g></g></g></g></g></g></g><g transform="matrix(1, 0, 0, 1, 50, 226)"><g clip-path="url(#9d0e5a2cab)"><g fill="#f36138" fill-opacity="1"><g transform="translate(0.303019, 67.380295)"><g><path d="M 99.671875 -43.046875 C 99.671875 -38.566406 98.3125 -33.460938 95.59375 -27.734375 C 94.257812 -24.929688 92.742188 -22.191406 91.046875 -19.515625 C 89.359375 -16.847656 87.488281 -14.25 85.4375 -11.71875 C 81.34375 -6.71875 76.835938 -2.523438 71.921875 0.859375 C 67.015625 4.335938 62.367188 6.078125 57.984375 6.078125 C 55.597656 6.078125 53.65625 5.382812 52.15625 4 C 50.65625 2.625 49.90625 0.53125 49.90625 -2.28125 C 49.90625 -3.238281 50.050781 -4.3125 50.34375 -5.5 C 47.144531 -2.3125 43.925781 0.398438 40.6875 2.640625 C 37.488281 4.929688 34.363281 6.078125 31.3125 6.078125 C 29.363281 6.078125 27.578125 5.484375 25.953125 4.296875 C 24.335938 3.097656 23.53125 1.046875 23.53125 -1.859375 C 23.53125 -5.335938 24.929688 -9.128906 27.734375 -13.234375 C 29.117188 -15.273438 30.597656 -17.285156 32.171875 -19.265625 C 33.742188 -21.242188 35.363281 -23.210938 37.03125 -25.171875 C 38.707031 -27.117188 40.332031 -29.046875 41.90625 -30.953125 C 43.476562 -32.859375 44.953125 -34.695312 46.328125 -36.46875 C 49.140625 -40.09375 50.546875 -43.140625 50.546875 -45.609375 C 50.546875 -46.710938 50.296875 -47.570312 49.796875 -48.1875 C 49.296875 -48.8125 48.304688 -49.125 46.828125 -49.125 C 43.972656 -49.125 40.566406 -48.191406 36.609375 -46.328125 C 32.742188 -44.515625 29.023438 -42.179688 25.453125 -39.328125 C 23.691406 -37.941406 22.070312 -36.460938 20.59375 -34.890625 C 19.113281 -33.316406 17.753906 -31.695312 16.515625 -30.03125 C 14.085938 -26.695312 12.875 -23.476562 12.875 -20.375 C 12.875 -18.851562 13.109375 -17.742188 13.578125 -17.046875 C 14.054688 -16.359375 14.65625 -16.015625 15.375 -16.015625 C 16.5625 -16.015625 17.441406 -16.300781 18.015625 -16.875 C 18.585938 -17.445312 19.113281 -17.734375 19.59375 -17.734375 C 20.019531 -17.734375 20.234375 -17.566406 20.234375 -17.234375 C 20.234375 -16.753906 19.671875 -16.132812 18.546875 -15.375 C 17.429688 -14.613281 16.085938 -14.234375 14.515625 -14.234375 C 13.179688 -14.234375 11.976562 -14.6875 10.90625 -15.59375 C 9.832031 -16.5 9.296875 -18.140625 9.296875 -20.515625 C 9.296875 -23.753906 10.554688 -27.1875 13.078125 -30.8125 C 15.609375 -34.34375 18.753906 -37.585938 22.515625 -40.546875 C 26.234375 -43.398438 30.285156 -45.804688 34.671875 -47.765625 C 38.960938 -49.671875 42.96875 -50.625 46.6875 -50.625 C 49.882812 -50.625 52.132812 -49.976562 53.4375 -48.6875 C 54.75 -47.40625 55.40625 -45.90625 55.40625 -44.1875 C 55.40625 -40.894531 54 -37.414062 51.1875 -33.75 C 48.425781 -30.125 45.351562 -26.40625 41.96875 -22.59375 C 40.351562 -20.738281 38.769531 -18.878906 37.21875 -17.015625 C 35.664062 -15.160156 34.195312 -13.300781 32.8125 -11.4375 C 30 -7.675781 28.59375 -4.125 28.59375 -0.78125 C 28.59375 0.695312 28.898438 1.875 29.515625 2.75 C 30.140625 3.632812 31.050781 4.078125 32.25 4.078125 C 34.101562 4.078125 36.066406 3.492188 38.140625 2.328125 C 40.210938 1.160156 42.367188 -0.398438 44.609375 -2.359375 C 46.847656 -4.316406 49.140625 -6.460938 51.484375 -8.796875 C 52.242188 -10.648438 53.207031 -12.566406 54.375 -14.546875 C 55.539062 -16.523438 56.816406 -18.46875 58.203125 -20.375 C 60.347656 -23.09375 62.347656 -25.453125 64.203125 -27.453125 C 66.109375 -29.503906 67.46875 -30.53125 68.28125 -30.53125 C 69.28125 -30.53125 69.78125 -29.9375 69.78125 -28.75 C 69.78125 -27.84375 69.410156 -26.695312 68.671875 -25.3125 C 67.929688 -23.925781 66.875 -22.257812 65.5 -20.3125 C 63.6875 -17.78125 61.992188 -15.710938 60.421875 -14.109375 C 58.847656 -12.515625 57.320312 -11.050781 55.84375 -9.71875 C 55.082031 -8.144531 54.617188 -6.644531 54.453125 -5.21875 C 54.285156 -3.789062 54.203125 -2.597656 54.203125 -1.640625 C 54.203125 2.265625 55.722656 4.21875 58.765625 4.21875 C 62.484375 4.21875 66.515625 2.3125 70.859375 -1.5 C 75.148438 -5.21875 79.101562 -9.722656 82.71875 -15.015625 C 86.34375 -20.210938 89.347656 -25.625 91.734375 -31.25 C 94.160156 -36.914062 95.375 -41.488281 95.375 -44.96875 C 95.375 -46.300781 95.097656 -47.242188 94.546875 -47.796875 C 94.003906 -48.347656 93.351562 -48.625 92.59375 -48.625 C 91.164062 -48.625 89.945312 -48.289062 88.9375 -47.625 C 87.9375 -46.957031 87.054688 -46.265625 86.296875 -45.546875 C 85.722656 -44.972656 85.257812 -44.445312 84.90625 -43.96875 C 84.550781 -43.488281 84.207031 -43.25 83.875 -43.25 C 83.4375 -43.25 83.21875 -43.421875 83.21875 -43.765625 C 83.21875 -44.140625 83.492188 -44.679688 84.046875 -45.390625 C 84.597656 -46.109375 85.335938 -46.847656 86.265625 -47.609375 C 87.191406 -48.378906 88.25 -49.035156 89.4375 -49.578125 C 90.632812 -50.128906 91.878906 -50.40625 93.171875 -50.40625 C 94.785156 -50.40625 96.257812 -49.878906 97.59375 -48.828125 C 98.976562 -47.828125 99.671875 -45.898438 99.671875 -43.046875 Z M 99.671875 -43.046875 "/></g></g></g><g fill="#f36138" fill-opacity="1"><g transform="translate(89.159981, 67.380295)"><g><path d="M 31.75 -3.640625 C 27.882812 -0.0664062 23.285156 1.71875 17.953125 1.71875 C 13.796875 1.71875 10.671875 0.835938 8.578125 -0.921875 C 6.484375 -2.691406 5.4375 -4.9375 5.4375 -7.65625 C 5.4375 -9.75 5.972656 -11.804688 7.046875 -13.828125 C 8.117188 -15.859375 9.582031 -17.707031 11.4375 -19.375 C 13.300781 -21.039062 15.398438 -22.375 17.734375 -23.375 C 20.066406 -24.375 22.472656 -24.875 24.953125 -24.875 C 27.242188 -24.875 28.992188 -24.382812 30.203125 -23.40625 C 31.421875 -22.4375 32.03125 -21.117188 32.03125 -19.453125 C 32.03125 -17.828125 31.289062 -16.191406 29.8125 -14.546875 C 28.332031 -12.898438 26.34375 -11.515625 23.84375 -10.390625 C 21.34375 -9.273438 18.492188 -8.71875 15.296875 -8.71875 C 13.773438 -8.71875 12.25 -8.910156 10.71875 -9.296875 C 10.675781 -9.003906 10.640625 -8.703125 10.609375 -8.390625 C 10.585938 -8.085938 10.578125 -7.789062 10.578125 -7.5 C 10.578125 -5.3125 11.242188 -3.535156 12.578125 -2.171875 C 13.921875 -0.816406 15.878906 -0.140625 18.453125 -0.140625 C 22.453125 -0.140625 25.894531 -1.222656 28.78125 -3.390625 C 31.664062 -5.566406 34.394531 -8.5625 36.96875 -12.375 C 37.15625 -12.707031 37.394531 -12.875 37.6875 -12.875 C 37.875 -12.875 38.035156 -12.789062 38.171875 -12.625 C 38.316406 -12.457031 38.390625 -12.273438 38.390625 -12.078125 C 38.390625 -11.703125 38.019531 -11 37.28125 -9.96875 C 36.539062 -8.945312 35.660156 -7.835938 34.640625 -6.640625 C 33.617188 -5.453125 32.65625 -4.453125 31.75 -3.640625 Z M 24.53125 -23.375 C 22.8125 -23.375 21.019531 -22.800781 19.15625 -21.65625 C 17.300781 -20.519531 15.632812 -19.007812 14.15625 -17.125 C 12.675781 -15.238281 11.648438 -13.175781 11.078125 -10.9375 C 11.460938 -10.894531 11.867188 -10.847656 12.296875 -10.796875 C 12.722656 -10.742188 13.128906 -10.71875 13.515625 -10.71875 C 16.140625 -10.71875 18.535156 -11.226562 20.703125 -12.25 C 22.867188 -13.28125 24.609375 -14.554688 25.921875 -16.078125 C 27.234375 -17.609375 27.890625 -19.132812 27.890625 -20.65625 C 27.890625 -21.664062 27.601562 -22.367188 27.03125 -22.765625 C 26.457031 -23.171875 25.625 -23.375 24.53125 -23.375 Z M 24.53125 -23.375 "/></g></g></g><g fill="#f36138" fill-opacity="1"><g transform="translate(119.755949, 67.380295)"><g><path d="M 33.390625 -13.375 C 32.242188 -13.375 31.195312 -13.515625 30.25 -13.796875 C 29.53125 -11.847656 28.535156 -9.96875 27.265625 -8.15625 C 26.003906 -6.34375 24.5625 -4.707031 22.9375 -3.25 C 21.320312 -1.800781 19.632812 -0.660156 17.875 0.171875 C 16.113281 1.015625 14.375 1.4375 12.65625 1.4375 C 10.457031 1.4375 8.628906 0.707031 7.171875 -0.75 C 5.722656 -2.207031 5 -4.195312 5 -6.71875 C 5 -9.488281 6.023438 -12.707031 8.078125 -16.375 C 9.128906 -18.226562 10.285156 -20.15625 11.546875 -22.15625 C 12.804688 -24.164062 14.175781 -26.265625 15.65625 -28.453125 C 16.988281 -30.410156 18.40625 -32.4375 19.90625 -34.53125 C 21.414062 -36.632812 22.894531 -38.578125 24.34375 -40.359375 C 25.800781 -42.148438 27.113281 -43.601562 28.28125 -44.71875 C 29.445312 -45.84375 30.335938 -46.40625 30.953125 -46.40625 C 31.722656 -46.40625 32.109375 -45.972656 32.109375 -45.109375 C 32.109375 -44.546875 31.867188 -43.535156 31.390625 -42.078125 C 30.910156 -40.617188 29.910156 -38.722656 28.390625 -36.390625 C 27.097656 -34.390625 25.84375 -32.554688 24.625 -30.890625 C 23.414062 -29.222656 22.257812 -27.695312 21.15625 -26.3125 C 20.0625 -24.976562 18.90625 -23.65625 17.6875 -22.34375 C 16.476562 -21.03125 15.253906 -19.734375 14.015625 -18.453125 C 12.585938 -16.398438 11.335938 -14.273438 10.265625 -12.078125 C 9.191406 -9.890625 8.65625 -7.796875 8.65625 -5.796875 C 8.65625 -4.023438 8.972656 -2.648438 9.609375 -1.671875 C 10.253906 -0.703125 11.34375 -0.21875 12.875 -0.21875 C 14.351562 -0.21875 15.851562 -0.671875 17.375 -1.578125 C 18.894531 -2.484375 20.332031 -3.671875 21.6875 -5.140625 C 23.050781 -6.617188 24.234375 -8.253906 25.234375 -10.046875 C 26.234375 -11.835938 26.953125 -13.613281 27.390625 -15.375 C 26.148438 -16.613281 25.53125 -18.328125 25.53125 -20.515625 C 25.53125 -21.378906 25.71875 -22.203125 26.09375 -22.984375 C 26.476562 -23.773438 27.097656 -24.171875 27.953125 -24.171875 C 28.859375 -24.171875 29.632812 -23.726562 30.28125 -22.84375 C 30.925781 -21.957031 31.25 -20.753906 31.25 -19.234375 C 31.25 -18.609375 31.195312 -17.960938 31.09375 -17.296875 C 31 -16.628906 30.882812 -15.960938 30.75 -15.296875 C 31.082031 -15.160156 31.484375 -15.066406 31.953125 -15.015625 C 32.429688 -14.960938 32.957031 -14.9375 33.53125 -14.9375 C 35.582031 -14.9375 37.5625 -15.460938 39.46875 -16.515625 C 41.375 -17.566406 43.421875 -19.046875 45.609375 -20.953125 C 45.953125 -21.285156 46.335938 -21.453125 46.765625 -21.453125 C 47.097656 -21.453125 47.265625 -21.257812 47.265625 -20.875 C 47.265625 -20.59375 46.878906 -20.054688 46.109375 -19.265625 C 45.347656 -18.484375 44.320312 -17.625 43.03125 -16.6875 C 41.75 -15.757812 40.273438 -14.972656 38.609375 -14.328125 C 36.941406 -13.691406 35.203125 -13.375 33.390625 -13.375 Z M 33.390625 -13.375 "/></g></g></g><g fill="#f36138" fill-opacity="1"><g transform="translate(155.570703, 67.380295)"><g/></g></g><g fill="#f36138" fill-opacity="1"><g transform="translate(165.935396, 67.380295)"><g><path d="M 54.984375 0.640625 C 53.265625 0.640625 51.59375 0.140625 49.96875 -0.859375 C 48.351562 -1.859375 47.257812 -3.570312 46.6875 -6 C 42.78125 -2.519531 38.785156 0.359375 34.703125 2.640625 C 30.628906 4.929688 26.5 6.078125 22.3125 6.078125 C 18.59375 6.078125 15.492188 4.835938 13.015625 2.359375 C 10.535156 -0.117188 9.296875 -3.859375 9.296875 -8.859375 C 9.296875 -15.585938 10.867188 -21.691406 14.015625 -27.171875 C 17.253906 -32.703125 21.351562 -37.421875 26.3125 -41.328125 C 28.832031 -43.285156 31.5 -45.023438 34.3125 -46.546875 C 37.125 -48.066406 40.082031 -49.351562 43.1875 -50.40625 C 49.332031 -52.601562 55.484375 -53.703125 61.640625 -53.703125 C 65.546875 -53.703125 68.796875 -53.148438 71.390625 -52.046875 C 73.992188 -50.953125 75.945312 -49.519531 77.25 -47.75 C 78.5625 -45.988281 79.21875 -44.109375 79.21875 -42.109375 C 79.21875 -41.253906 79.085938 -40.46875 78.828125 -39.75 C 78.566406 -39.039062 78.195312 -38.6875 77.71875 -38.6875 C 77.34375 -38.6875 77.15625 -39.039062 77.15625 -39.75 C 77.15625 -40.082031 77.1875 -40.460938 77.25 -40.890625 C 77.320312 -41.328125 77.359375 -41.757812 77.359375 -42.1875 C 77.359375 -43.851562 76.785156 -45.4375 75.640625 -46.9375 C 74.503906 -48.4375 72.78125 -49.660156 70.46875 -50.609375 C 68.15625 -51.566406 65.210938 -52.046875 61.640625 -52.046875 C 56.390625 -52.046875 51.046875 -50.953125 45.609375 -48.765625 C 40.085938 -46.617188 35.0625 -43.640625 30.53125 -39.828125 C 28.289062 -37.921875 26.226562 -35.820312 24.34375 -33.53125 C 22.457031 -31.238281 20.78125 -28.757812 19.3125 -26.09375 C 16.394531 -20.757812 14.9375 -14.945312 14.9375 -8.65625 C 14.9375 -4.550781 15.566406 -1.425781 16.828125 0.71875 C 18.097656 2.863281 20.09375 3.9375 22.8125 3.9375 C 26.863281 3.9375 30.84375 2.816406 34.75 0.578125 C 38.65625 -1.660156 42.539062 -4.5 46.40625 -7.9375 C 46.351562 -8.125 46.328125 -8.335938 46.328125 -8.578125 C 46.328125 -8.816406 46.328125 -9.054688 46.328125 -9.296875 C 46.328125 -10.628906 46.613281 -12.320312 47.1875 -14.375 C 47.757812 -16.425781 48.582031 -18.570312 49.65625 -20.8125 C 50.726562 -23.050781 51.957031 -25.097656 53.34375 -26.953125 C 55.382812 -29.523438 57.488281 -31.703125 59.65625 -33.484375 C 61.832031 -35.273438 63.859375 -36.632812 65.734375 -37.5625 C 67.617188 -38.5 69.132812 -38.96875 70.28125 -38.96875 C 70.90625 -38.96875 71.394531 -38.773438 71.75 -38.390625 C 72.101562 -38.015625 72.28125 -37.5625 72.28125 -37.03125 C 72.28125 -36.363281 71.945312 -35.382812 71.28125 -34.09375 C 70.613281 -32.8125 69.707031 -31.347656 68.5625 -29.703125 C 67.425781 -28.054688 66.140625 -26.363281 64.703125 -24.625 C 63.273438 -22.882812 61.820312 -21.226562 60.34375 -19.65625 C 58.863281 -18.039062 57.347656 -16.429688 55.796875 -14.828125 C 54.253906 -13.234375 52.742188 -11.695312 51.265625 -10.21875 C 50.984375 -9.175781 50.84375 -8.222656 50.84375 -7.359375 C 50.84375 -5.078125 51.34375 -3.503906 52.34375 -2.640625 C 53.34375 -1.785156 54.4375 -1.359375 55.625 -1.359375 C 57.382812 -1.359375 59.421875 -2.285156 61.734375 -4.140625 C 64.046875 -6.003906 66.421875 -8.75 68.859375 -12.375 C 68.953125 -12.65625 69.164062 -12.796875 69.5 -12.796875 C 69.6875 -12.796875 69.863281 -12.734375 70.03125 -12.609375 C 70.195312 -12.492188 70.28125 -12.34375 70.28125 -12.15625 C 70.28125 -12.007812 70.234375 -11.84375 70.140625 -11.65625 C 70.046875 -11.46875 69.972656 -11.300781 69.921875 -11.15625 C 67.398438 -7.289062 64.835938 -4.359375 62.234375 -2.359375 C 59.640625 -0.359375 57.222656 0.640625 54.984375 0.640625 Z M 58.484375 -25.3125 C 57.054688 -23.257812 55.816406 -21.234375 54.765625 -19.234375 C 53.722656 -17.234375 52.890625 -15.375 52.265625 -13.65625 C 53.359375 -14.75 54.453125 -15.867188 55.546875 -17.015625 C 56.648438 -18.160156 57.75 -19.328125 58.84375 -20.515625 C 60.320312 -22.085938 61.75 -23.71875 63.125 -25.40625 C 64.507812 -27.101562 65.757812 -28.726562 66.875 -30.28125 C 68 -31.832031 68.882812 -33.191406 69.53125 -34.359375 C 70.175781 -35.523438 70.5 -36.347656 70.5 -36.828125 C 70.5 -37.253906 70.285156 -37.46875 69.859375 -37.46875 C 69.378906 -37.46875 68.1875 -36.632812 66.28125 -34.96875 C 64.46875 -33.394531 61.867188 -30.175781 58.484375 -25.3125 Z M 58.484375 -25.3125 "/></g></g></g><g fill="#f36138" fill-opacity="1"><g transform="translate(228.342574, 67.380295)"><g><path d="M -2.859375 15.375 C -3.816406 17.613281 -4.816406 19.328125 -5.859375 20.515625 C -6.910156 21.710938 -7.796875 22.3125 -8.515625 22.3125 C -9.410156 22.3125 -9.859375 21.710938 -9.859375 20.515625 C -9.859375 18.753906 -9.082031 16.191406 -7.53125 12.828125 C -5.988281 9.472656 -3.570312 5.4375 -0.28125 0.71875 L 2.359375 -4.796875 L 5.796875 -11.296875 C 6.503906 -12.585938 7.382812 -14.085938 8.4375 -15.796875 C 9.488281 -17.515625 10.582031 -19.265625 11.71875 -21.046875 C 12.863281 -22.835938 13.984375 -24.507812 15.078125 -26.0625 C 16.179688 -27.613281 17.171875 -28.863281 18.046875 -29.8125 C 18.929688 -30.769531 19.585938 -31.25 20.015625 -31.25 C 21.453125 -31.25 22.171875 -30.53125 22.171875 -29.09375 C 22.171875 -28.625 21.550781 -27.601562 20.3125 -26.03125 C 19.070312 -24.457031 17.566406 -22.550781 15.796875 -20.3125 C 14.609375 -18.832031 13.40625 -17.234375 12.1875 -15.515625 C 10.976562 -13.796875 9.847656 -12.03125 8.796875 -10.21875 C 10.796875 -12.695312 12.84375 -15.054688 14.9375 -17.296875 C 17.039062 -19.535156 19.066406 -21.359375 21.015625 -22.765625 C 22.972656 -24.171875 24.710938 -24.875 26.234375 -24.875 C 28.003906 -24.875 29.351562 -24.253906 30.28125 -23.015625 C 31.207031 -21.773438 31.671875 -20.300781 31.671875 -18.59375 C 31.671875 -14.488281 30.289062 -10.742188 27.53125 -7.359375 C 24.757812 -3.878906 21.179688 -1.398438 16.796875 0.078125 C 17.660156 0.117188 18.328125 0.148438 18.796875 0.171875 C 19.273438 0.203125 19.707031 0.191406 20.09375 0.140625 C 23.425781 -0.046875 26.210938 -0.695312 28.453125 -1.8125 C 30.691406 -2.9375 32.632812 -4.414062 34.28125 -6.25 C 35.925781 -8.09375 37.507812 -10.132812 39.03125 -12.375 C 39.226562 -12.707031 39.46875 -12.875 39.75 -12.875 C 40.226562 -12.875 40.46875 -12.65625 40.46875 -12.21875 C 40.46875 -12.03125 40.253906 -11.578125 39.828125 -10.859375 C 39.398438 -10.148438 38.863281 -9.34375 38.21875 -8.4375 C 37.570312 -7.53125 36.898438 -6.644531 36.203125 -5.78125 C 35.515625 -4.925781 34.910156 -4.265625 34.390625 -3.796875 C 32.390625 -1.984375 30.03125 -0.601562 27.3125 0.34375 C 24.59375 1.300781 22.039062 1.78125 19.65625 1.78125 C 15.707031 1.78125 12.660156 1.269531 10.515625 0.25 C 8.367188 -0.769531 7.296875 -2 7.296875 -3.4375 C 7.296875 -4.007812 7.5 -4.519531 7.90625 -4.96875 C 8.3125 -5.425781 8.726562 -5.65625 9.15625 -5.65625 C 9.914062 -5.65625 10.613281 -5.257812 11.25 -4.46875 C 11.894531 -3.675781 12.957031 -2.640625 14.4375 -1.359375 C 16.632812 -2.210938 18.648438 -3.507812 20.484375 -5.25 C 22.316406 -6.988281 23.804688 -9.070312 24.953125 -11.5 C 26.097656 -13.9375 26.671875 -16.5625 26.671875 -19.375 C 26.671875 -20.1875 26.503906 -20.863281 26.171875 -21.40625 C 25.835938 -21.957031 25.335938 -22.234375 24.671875 -22.234375 C 23.566406 -22.234375 22.265625 -21.695312 20.765625 -20.625 C 19.265625 -19.550781 17.632812 -18.082031 15.875 -16.21875 C 14.113281 -14.363281 12.265625 -12.269531 10.328125 -9.9375 C 8.398438 -7.601562 6.457031 -5.171875 4.5 -2.640625 C 2.59375 0.691406 1.140625 3.941406 0.140625 7.109375 C -0.859375 10.285156 -1.859375 13.039062 -2.859375 15.375 Z M -2.859375 15.375 "/></g></g></g><g fill="#f36138" fill-opacity="1"><g transform="translate(260.940136, 67.380295)"><g><path d="M -2.859375 15.375 C -3.816406 17.613281 -4.816406 19.328125 -5.859375 20.515625 C -6.910156 21.710938 -7.796875 22.3125 -8.515625 22.3125 C -9.410156 22.3125 -9.859375 21.710938 -9.859375 20.515625 C -9.859375 18.753906 -9.082031 16.191406 -7.53125 12.828125 C -5.988281 9.472656 -3.570312 5.4375 -0.28125 0.71875 L 2.359375 -4.796875 L 5.796875 -11.296875 C 6.503906 -12.585938 7.382812 -14.085938 8.4375 -15.796875 C 9.488281 -17.515625 10.582031 -19.265625 11.71875 -21.046875 C 12.863281 -22.835938 13.984375 -24.507812 15.078125 -26.0625 C 16.179688 -27.613281 17.171875 -28.863281 18.046875 -29.8125 C 18.929688 -30.769531 19.585938 -31.25 20.015625 -31.25 C 21.453125 -31.25 22.171875 -30.53125 22.171875 -29.09375 C 22.171875 -28.625 21.550781 -27.601562 20.3125 -26.03125 C 19.070312 -24.457031 17.566406 -22.550781 15.796875 -20.3125 C 14.609375 -18.832031 13.40625 -17.234375 12.1875 -15.515625 C 10.976562 -13.796875 9.847656 -12.03125 8.796875 -10.21875 C 10.796875 -12.695312 12.84375 -15.054688 14.9375 -17.296875 C 17.039062 -19.535156 19.066406 -21.359375 21.015625 -22.765625 C 22.972656 -24.171875 24.710938 -24.875 26.234375 -24.875 C 28.003906 -24.875 29.351562 -24.253906 30.28125 -23.015625 C 31.207031 -21.773438 31.671875 -20.300781 31.671875 -18.59375 C 31.671875 -14.488281 30.289062 -10.742188 27.53125 -7.359375 C 24.757812 -3.878906 21.179688 -1.398438 16.796875 0.078125 C 17.660156 0.117188 18.328125 0.148438 18.796875 0.171875 C 19.273438 0.203125 19.707031 0.191406 20.09375 0.140625 C 23.425781 -0.046875 26.210938 -0.695312 28.453125 -1.8125 C 30.691406 -2.9375 32.632812 -4.414062 34.28125 -6.25 C 35.925781 -8.09375 37.507812 -10.132812 39.03125 -12.375 C 39.226562 -12.707031 39.46875 -12.875 39.75 -12.875 C 40.226562 -12.875 40.46875 -12.65625 40.46875 -12.21875 C 40.46875 -12.03125 40.253906 -11.578125 39.828125 -10.859375 C 39.398438 -10.148438 38.863281 -9.34375 38.21875 -8.4375 C 37.570312 -7.53125 36.898438 -6.644531 36.203125 -5.78125 C 35.515625 -4.925781 34.910156 -4.265625 34.390625 -3.796875 C 32.390625 -1.984375 30.03125 -0.601562 27.3125 0.34375 C 24.59375 1.300781 22.039062 1.78125 19.65625 1.78125 C 15.707031 1.78125 12.660156 1.269531 10.515625 0.25 C 8.367188 -0.769531 7.296875 -2 7.296875 -3.4375 C 7.296875 -4.007812 7.5 -4.519531 7.90625 -4.96875 C 8.3125 -5.425781 8.726562 -5.65625 9.15625 -5.65625 C 9.914062 -5.65625 10.613281 -5.257812 11.25 -4.46875 C 11.894531 -3.675781 12.957031 -2.640625 14.4375 -1.359375 C 16.632812 -2.210938 18.648438 -3.507812 20.484375 -5.25 C 22.316406 -6.988281 23.804688 -9.070312 24.953125 -11.5 C 26.097656 -13.9375 26.671875 -16.5625 26.671875 -19.375 C 26.671875 -20.1875 26.503906 -20.863281 26.171875 -21.40625 C 25.835938 -21.957031 25.335938 -22.234375 24.671875 -22.234375 C 23.566406 -22.234375 22.265625 -21.695312 20.765625 -20.625 C 19.265625 -19.550781 17.632812 -18.082031 15.875 -16.21875 C 14.113281 -14.363281 12.265625 -12.269531 10.328125 -9.9375 C 8.398438 -7.601562 6.457031 -5.171875 4.5 -2.640625 C 2.59375 0.691406 1.140625 3.941406 0.140625 7.109375 C -0.859375 10.285156 -1.859375 13.039062 -2.859375 15.375 Z M -2.859375 15.375 "/></g></g></g></g></g></svg>